<?xml version="1.0" encoding="utf-8"?>
<!-- Generator: Adobe Illustrator 18.1.1, SVG Export Plug-In . SVG Version: 6.00 Build 0)  -->
<!DOCTYPE svg PUBLIC "-//W3C//DTD SVG 1.1//EN" "http://www.w3.org/Graphics/SVG/1.1/DTD/svg11.dtd">
<svg version="1.1" id="Layer_1" xmlns="http://www.w3.org/2000/svg" xmlns:xlink="http://www.w3.org/1999/xlink" x="0px" y="0px"
	 viewBox="0 0 1024 768" enable-background="new 0 0 1024 768" xml:space="preserve">
<g>
	<g>
		<path fill="#556991" d="M90.9,393.2l75.4-67.4c-6-4.7-12.7-8.5-20-11.2l-55.4,49.5V393.2z"/>
		<path fill="#556991" d="M69.3,383.5l-20.4,18.2c1.9,7.6,4.9,14.7,8.9,21.1l11.6-10.3V383.5z"/>
		<g>
			<path fill="#00D2FF" d="M131.3,328.1v-17.3c-3.5-0.5-7-0.8-10.6-0.8c-3.8,0-7.5,0.3-11.1,0.8v36.6L131.3,328.1z"/>
			<path fill="#00D2FF" d="M131.3,429.9v-72.7l-21.7,19.4v80.7c3.6,0.5,7.3,0.8,11.1,0.8c4.4,0,8.7-0.4,12.9-1.1l58-51.8
				c2-6.7,3-13.7,3-21c0-3.4-0.3-6.8-0.7-10.1L131.3,429.9z"/>
		</g>
		<path fill="#FF4B19" d="M131.3,408.5l58.1-51.9c-2.8-6.9-6.6-13.4-11.2-19.1l-47,42V408.5z"/>
		<path fill="#FF4B19" d="M109.6,398.8l-18.7,16.7v-99.3c-8.1,3.6-15.4,8.5-21.7,14.6v106.4c4.9,4.7,10.4,8.8,16.4,12l23.9-21.3
			V398.8z"/>
	</g>
	<g>
		<g>
			<g>
				<path fill="#FFFFFF" d="M301.6,399.1l13.8-51.9H334l-20.5,72.2h-21.9l-12.2-48.6l-12.2,48.6h-21.9l-20.5-72.2h18.6l13.8,51.9
					l13.7-51.9h17.1L301.6,399.1z"/>
				<path fill="#FFFFFF" d="M402.4,395.7c-2.1,14.4-13.2,24.6-32.1,24.6c-20.1,0-35-12.1-35-36.6c0-24.6,15.4-37.4,35-37.4
					c21.7,0,33.2,15.9,33.2,37.3v3.8h-49.8c0,8,3.3,18.2,16.3,18.2c7.2,0,12.9-3.6,14.4-10.3L402.4,395.7z M384.7,374.6
					c-0.7-10-7.1-13.7-14.5-13.7c-8.4,0-14.9,5.1-15.8,13.7H384.7z"/>
				<path fill="#FFFFFF" d="M456.6,372.6v-2.5c0-5.7-2.4-9.3-13-9.3c-13.3,0-13.7,7.4-13.7,9.9h-17.1c0-10.7,4.5-24.4,31.3-24.4
					c25.7,0,30.3,12.8,30.3,23.2v39.8c0,2.9,0.1,5.3,0.4,7.1l0.5,3h-18.2v-7.2c-5.1,5.1-12.2,8.2-22.4,8.2c-14.2,0-25-8.3-25-22.6
					c0-16.6,15.7-20.1,22-21.2L456.6,372.6z M456.6,386.2l-7,1.1c-3.8,0.7-8.4,1.3-11.2,1.8c-3,0.5-5.7,1.2-7.6,2.8
					c-1.8,1.4-2.8,3.4-2.8,5.9c0,2.1,0.8,8.7,10.7,8.7c5.8,0,10.9-2.1,13.7-4.9c3.6-3.6,4.2-8,4.2-11.6V386.2z"/>
				<path fill="#FFFFFF" d="M525.5,419.4h-24.1l-23.7-72.2h19.5l16.6,55.2l16.7-55.2h19L525.5,419.4z"/>
				<path fill="#FFFFFF" d="M617.3,395.7c-2.1,14.4-13.2,24.6-32.1,24.6c-20.1,0-35-12.1-35-36.6c0-24.6,15.4-37.4,35-37.4
					c21.7,0,33.2,15.9,33.2,37.3v3.8h-49.8c0,8,3.3,18.2,16.3,18.2c7.2,0,12.9-3.6,14.4-10.3L617.3,395.7z M599.5,374.6
					c-0.7-10-7.1-13.7-14.5-13.7c-8.4,0-14.9,5.1-15.8,13.7H599.5z"/>
			</g>
		</g>
		<path fill="#FFFFFF" d="M643.9,419.4l-20.9-70.3h11.3l16.5,59.5l16.5-59.5h12.2l16.6,59.6l16.5-59.6h11.1l-21.2,70.3h-13
			l-16.2-58.2L657,419.4H643.9z"/>
		<path fill="#FFFFFF" d="M759.7,420.3c-19.1,0-32.3-12.1-32.3-36.1c0-23.7,13.2-36.1,32.3-36.1c19,0,32.1,12.1,32.1,36.1
			C791.9,408.3,778.7,420.3,759.7,420.3z M759.7,411.2c12.1,0,21.1-7.4,21.1-27c0-19.5-9-27-21.1-27c-12.2,0-21.2,7.4-21.2,27
			C738.5,403.8,747.5,411.2,759.7,411.2z"/>
		<path fill="#FFFFFF" d="M836,360.1c-12.6,0-21.5,4.3-21.5,20.9v38.3h-10.8v-70.3h10.7v12.1c4.6-9,14-12.1,21.3-12.1h5v11.1H836z"
			/>
		<path fill="#FFFFFF" d="M912,349.1l-25.5,26.1l26.9,44.2h-12.8l-21.7-36.6l-16.7,17.6v19h-10.8v-97.4h10.8v64.7l36.5-37.5H912z"/>
		<path fill="#FFFFFF" d="M962.1,368.3c-0.7-8.6-7.5-11.1-16.2-11.1c-7.5,0-16.9,2.4-16.9,10.7c0,17.9,46.1,1.4,46.1,30.2
			c0,9.6-5.5,22.3-30.2,22.3c-18.8,0-27.8-9.6-28.2-22.4h11.9c0.1,7.8,5.1,13.3,17.6,13.3c14.4,0,17.9-6.2,17.9-12.5
			c0-13.3-24.4-7.6-37.7-15.1c-4.9-2.8-8.3-7.1-8.3-15c0-11.6,10.9-20.4,27.8-20.4c20.9,0,27.1,12.2,27.5,20.1H962.1z"/>
	</g>
</g>
</svg>
